<?xml version="1.0" encoding="utf-8"?>
<!-- Generator: Adobe Illustrator 18.1.1, SVG Export Plug-In . SVG Version: 6.00 Build 0)  -->
<svg version="1.1" id="Icons" xmlns="http://www.w3.org/2000/svg" xmlns:xlink="http://www.w3.org/1999/xlink" x="0px" y="0px"
	 viewBox="0 0 120 120" enable-background="new 0 0 120 120" xml:space="preserve">
<path fill="none" stroke="#236373" stroke-width="8" stroke-linecap="round" stroke-linejoin="round" stroke-miterlimit="10" d="
	M11.3,108.8h97.5V40.5c0-16.1-13.1-29.3-29.3-29.3l0,0c-11.6,0-22.5,7.1-27,18L45.8,45c-2.6,6.8-9.4,11.3-16.5,11.3l0,0
	c-10.1,0-18,7.9-18,18V108.8z"/>
<line fill="none" stroke="#236373" stroke-width="8" stroke-linecap="round" stroke-linejoin="round" stroke-miterlimit="10" x1="11.3" y1="86.3" x2="108.8" y2="86.3"/>
<line fill="none" stroke="#236373" stroke-width="8" stroke-linecap="round" stroke-linejoin="round" stroke-miterlimit="10" x1="22.5" y1="97.5" x2="22.5" y2="86.3"/>
<line fill="none" stroke="#236373" stroke-width="8" stroke-linecap="round" stroke-linejoin="round" stroke-miterlimit="10" x1="33.8" y1="97.5" x2="33.8" y2="86.3"/>
<line fill="none" stroke="#236373" stroke-width="8" stroke-linecap="round" stroke-linejoin="round" stroke-miterlimit="10" x1="48.8" y1="97.5" x2="48.8" y2="86.3"/>
<line fill="none" stroke="#236373" stroke-width="8" stroke-linecap="round" stroke-linejoin="round" stroke-miterlimit="10" x1="60" y1="97.5" x2="60" y2="86.3"/>
<line fill="none" stroke="#236373" stroke-width="8" stroke-linecap="round" stroke-linejoin="round" stroke-miterlimit="10" x1="71.3" y1="97.5" x2="71.3" y2="86.3"/>
<line fill="none" stroke="#236373" stroke-width="8" stroke-linecap="round" stroke-linejoin="round" stroke-miterlimit="10" x1="86.3" y1="97.5" x2="86.3" y2="86.3"/>
<line fill="none" stroke="#236373" stroke-width="8" stroke-linecap="round" stroke-linejoin="round" stroke-miterlimit="10" x1="97.5" y1="97.5" x2="97.5" y2="86.3"/>
</svg>
